<svg xmlns="http://www.w3.org/2000/svg" xmlns:xlink="http://www.w3.org/1999/xlink" width="40" zoomAndPan="magnify" viewBox="0 0 30 30.000001" height="40" preserveAspectRatio="xMidYMid meet" version="1.0"><defs><g/><clipPath id="a761e12a20"><path d="M 6 0.96875 L 9 0.96875 L 9 10 L 6 10 Z M 6 0.96875 " clip-rule="nonzero"/></clipPath><clipPath id="b13775ab81"><path d="M 13 0.96875 L 16 0.96875 L 16 10 L 13 10 Z M 13 0.96875 " clip-rule="nonzero"/></clipPath><clipPath id="e6ba6bae1a"><path d="M 21 0.96875 L 24 0.96875 L 24 10 L 21 10 Z M 21 0.96875 " clip-rule="nonzero"/></clipPath><clipPath id="c6fb907bde"><path d="M 4.789062 8 L 25.113281 8 L 25.113281 11 L 4.789062 11 Z M 4.789062 8 " clip-rule="nonzero"/></clipPath><clipPath id="8d5b7d5cfd"><path d="M 4.789062 16 L 25.113281 16 L 25.113281 19 L 4.789062 19 Z M 4.789062 16 " clip-rule="nonzero"/></clipPath><clipPath id="7116e73ff7"><path d="M 5 24 L 10 24 L 10 26.371094 L 5 26.371094 Z M 5 24 " clip-rule="nonzero"/></clipPath><clipPath id="dd7108d006"><path d="M 12 24 L 18 24 L 18 26.371094 L 12 26.371094 Z M 12 24 " clip-rule="nonzero"/></clipPath><clipPath id="232c15fd8d"><path d="M 20 24 L 25 24 L 25 26.371094 L 20 26.371094 Z M 20 24 " clip-rule="nonzero"/></clipPath><clipPath id="e36b94d7ec"><path d="M 29 0 L 29.515625 0 L 29.515625 1 L 29 1 Z M 29 0 " clip-rule="nonzero"/></clipPath></defs><g clip-path="url(#a761e12a20)"><path fill="#000000" d="M 8.007812 9.425781 C 7.847656 9.425781 7.71875 9.296875 7.71875 9.136719 L 7.71875 1.546875 L 6.78125 1.546875 L 6.78125 9.136719 C 6.78125 9.296875 6.652344 9.425781 6.496094 9.425781 C 6.335938 9.425781 6.207031 9.296875 6.207031 9.136719 L 6.207031 1.5 C 6.207031 1.207031 6.441406 0.96875 6.734375 0.96875 L 7.765625 0.96875 C 8.058594 0.96875 8.296875 1.207031 8.296875 1.5 L 8.296875 9.136719 C 8.296875 9.296875 8.164062 9.425781 8.007812 9.425781 Z M 8.007812 9.425781 " fill-opacity="1" fill-rule="nonzero"/></g><path fill="#000000" d="M 8.007812 24.820312 C 7.847656 24.820312 7.71875 24.691406 7.71875 24.53125 L 7.71875 18.347656 C 7.71875 18.1875 7.847656 18.058594 8.007812 18.058594 C 8.164062 18.058594 8.296875 18.1875 8.296875 18.347656 L 8.296875 24.53125 C 8.296875 24.691406 8.164062 24.820312 8.007812 24.820312 Z M 8.007812 24.820312 " fill-opacity="1" fill-rule="nonzero"/><path fill="#000000" d="M 8.007812 17.125 C 7.847656 17.125 7.71875 16.996094 7.71875 16.835938 L 7.71875 10.652344 C 7.71875 10.492188 7.847656 10.363281 8.007812 10.363281 C 8.164062 10.363281 8.296875 10.492188 8.296875 10.652344 L 8.296875 16.835938 C 8.296875 16.996094 8.164062 17.125 8.007812 17.125 Z M 8.007812 17.125 " fill-opacity="1" fill-rule="nonzero"/><path fill="#000000" d="M 6.496094 24.820312 C 6.335938 24.820312 6.207031 24.691406 6.207031 24.53125 L 6.207031 18.347656 C 6.207031 18.1875 6.335938 18.058594 6.496094 18.058594 C 6.652344 18.058594 6.78125 18.1875 6.78125 18.347656 L 6.78125 24.53125 C 6.78125 24.691406 6.652344 24.820312 6.496094 24.820312 Z M 6.496094 24.820312 " fill-opacity="1" fill-rule="nonzero"/><path fill="#000000" d="M 6.496094 17.125 C 6.335938 17.125 6.207031 16.996094 6.207031 16.835938 L 6.207031 10.652344 C 6.207031 10.492188 6.335938 10.363281 6.496094 10.363281 C 6.652344 10.363281 6.78125 10.492188 6.78125 10.652344 L 6.78125 16.835938 C 6.78125 16.996094 6.652344 17.125 6.496094 17.125 Z M 6.496094 17.125 " fill-opacity="1" fill-rule="nonzero"/><g clip-path="url(#b13775ab81)"><path fill="#000000" d="M 14.191406 9.425781 C 14.03125 9.425781 13.902344 9.296875 13.902344 9.136719 L 13.902344 1.5 C 13.902344 1.207031 14.140625 0.96875 14.433594 0.96875 L 15.464844 0.96875 C 15.753906 0.96875 15.992188 1.207031 15.992188 1.5 L 15.992188 9.136719 C 15.992188 9.296875 15.863281 9.425781 15.703125 9.425781 C 15.542969 9.425781 15.414062 9.296875 15.414062 9.136719 L 15.414062 1.546875 L 14.480469 1.546875 L 14.480469 9.136719 C 14.480469 9.296875 14.351562 9.425781 14.191406 9.425781 Z M 14.191406 9.425781 " fill-opacity="1" fill-rule="nonzero"/></g><path fill="#000000" d="M 15.703125 24.820312 C 15.542969 24.820312 15.414062 24.691406 15.414062 24.53125 L 15.414062 18.347656 C 15.414062 18.1875 15.542969 18.058594 15.703125 18.058594 C 15.863281 18.058594 15.992188 18.1875 15.992188 18.347656 L 15.992188 24.53125 C 15.992188 24.691406 15.863281 24.820312 15.703125 24.820312 Z M 15.703125 24.820312 " fill-opacity="1" fill-rule="nonzero"/><path fill="#000000" d="M 15.703125 17.125 C 15.542969 17.125 15.414062 16.996094 15.414062 16.835938 L 15.414062 10.652344 C 15.414062 10.492188 15.542969 10.363281 15.703125 10.363281 C 15.863281 10.363281 15.992188 10.492188 15.992188 10.652344 L 15.992188 16.835938 C 15.992188 16.996094 15.863281 17.125 15.703125 17.125 Z M 15.703125 17.125 " fill-opacity="1" fill-rule="nonzero"/><path fill="#000000" d="M 14.191406 24.820312 C 14.03125 24.820312 13.902344 24.691406 13.902344 24.53125 L 13.902344 18.347656 C 13.902344 18.1875 14.03125 18.058594 14.191406 18.058594 C 14.351562 18.058594 14.480469 18.1875 14.480469 18.347656 L 14.480469 24.53125 C 14.480469 24.691406 14.351562 24.820312 14.191406 24.820312 Z M 14.191406 24.820312 " fill-opacity="1" fill-rule="nonzero"/><path fill="#000000" d="M 14.191406 17.125 C 14.03125 17.125 13.902344 16.996094 13.902344 16.835938 L 13.902344 10.652344 C 13.902344 10.492188 14.03125 10.363281 14.191406 10.363281 C 14.351562 10.363281 14.480469 10.492188 14.480469 10.652344 L 14.480469 16.835938 C 14.480469 16.996094 14.351562 17.125 14.191406 17.125 Z M 14.191406 17.125 " fill-opacity="1" fill-rule="nonzero"/><g clip-path="url(#e6ba6bae1a)"><path fill="#000000" d="M 23.402344 9.425781 C 23.242188 9.425781 23.113281 9.296875 23.113281 9.136719 L 23.113281 1.546875 L 22.175781 1.546875 L 22.175781 9.136719 C 22.175781 9.296875 22.046875 9.425781 21.886719 9.425781 C 21.730469 9.425781 21.601562 9.296875 21.601562 9.136719 L 21.601562 1.5 C 21.601562 1.207031 21.835938 0.96875 22.128906 0.96875 L 23.160156 0.96875 C 23.453125 0.96875 23.6875 1.207031 23.6875 1.5 L 23.6875 9.136719 C 23.6875 9.296875 23.558594 9.425781 23.402344 9.425781 Z M 23.402344 9.425781 " fill-opacity="1" fill-rule="nonzero"/></g><path fill="#000000" d="M 23.402344 24.820312 C 23.242188 24.820312 23.113281 24.691406 23.113281 24.53125 L 23.113281 18.347656 C 23.113281 18.1875 23.242188 18.058594 23.402344 18.058594 C 23.558594 18.058594 23.6875 18.1875 23.6875 18.347656 L 23.6875 24.53125 C 23.6875 24.691406 23.558594 24.820312 23.402344 24.820312 Z M 23.402344 24.820312 " fill-opacity="1" fill-rule="nonzero"/><path fill="#000000" d="M 23.402344 17.125 C 23.242188 17.125 23.113281 16.996094 23.113281 16.835938 L 23.113281 10.652344 C 23.113281 10.492188 23.242188 10.363281 23.402344 10.363281 C 23.558594 10.363281 23.6875 10.492188 23.6875 10.652344 L 23.6875 16.835938 C 23.6875 16.996094 23.558594 17.125 23.402344 17.125 Z M 23.402344 17.125 " fill-opacity="1" fill-rule="nonzero"/><path fill="#000000" d="M 21.886719 24.820312 C 21.730469 24.820312 21.601562 24.691406 21.601562 24.53125 L 21.601562 18.347656 C 21.601562 18.1875 21.730469 18.058594 21.886719 18.058594 C 22.046875 18.058594 22.175781 18.1875 22.175781 18.347656 L 22.175781 24.53125 C 22.175781 24.691406 22.046875 24.820312 21.886719 24.820312 Z M 21.886719 24.820312 " fill-opacity="1" fill-rule="nonzero"/><path fill="#000000" d="M 21.886719 17.125 C 21.730469 17.125 21.601562 16.996094 21.601562 16.835938 L 21.601562 10.652344 C 21.601562 10.492188 21.730469 10.363281 21.886719 10.363281 C 22.046875 10.363281 22.175781 10.492188 22.175781 10.652344 L 22.175781 16.835938 C 22.175781 16.996094 22.046875 17.125 21.886719 17.125 Z M 21.886719 17.125 " fill-opacity="1" fill-rule="nonzero"/><g clip-path="url(#c6fb907bde)"><path fill="#000000" d="M 24.574219 10.9375 L 5.320312 10.9375 C 5.035156 10.9375 4.800781 10.707031 4.800781 10.421875 L 4.800781 9.367188 C 4.800781 9.082031 5.035156 8.851562 5.320312 8.851562 L 24.574219 8.851562 C 24.863281 8.851562 25.09375 9.082031 25.09375 9.367188 L 25.09375 10.421875 C 25.09375 10.707031 24.863281 10.9375 24.574219 10.9375 Z M 5.378906 10.363281 L 24.515625 10.363281 L 24.515625 9.425781 L 5.378906 9.425781 Z M 5.378906 10.363281 " fill-opacity="1" fill-rule="nonzero"/></g><path fill="#000000" d="M 14.191406 9.425781 C 14.117188 9.425781 14.042969 9.398438 13.988281 9.34375 L 7.800781 3.15625 C 7.691406 3.042969 7.691406 2.863281 7.800781 2.75 C 7.914062 2.636719 8.097656 2.636719 8.210938 2.75 L 14.394531 8.933594 C 14.507812 9.046875 14.507812 9.230469 14.394531 9.34375 C 14.339844 9.398438 14.265625 9.425781 14.191406 9.425781 Z M 14.191406 9.425781 " fill-opacity="1" fill-rule="nonzero"/><path fill="#000000" d="M 8.007812 9.425781 C 7.933594 9.425781 7.859375 9.398438 7.800781 9.34375 C 7.691406 9.230469 7.691406 9.046875 7.800781 8.933594 L 13.988281 2.75 C 14.101562 2.636719 14.28125 2.636719 14.394531 2.75 C 14.507812 2.863281 14.507812 3.042969 14.394531 3.15625 L 8.210938 9.34375 C 8.152344 9.398438 8.082031 9.425781 8.007812 9.425781 Z M 8.007812 9.425781 " fill-opacity="1" fill-rule="nonzero"/><path fill="#000000" d="M 21.890625 9.425781 C 21.816406 9.425781 21.742188 9.398438 21.683594 9.34375 L 15.5 3.15625 C 15.386719 3.042969 15.386719 2.863281 15.5 2.75 C 15.613281 2.636719 15.792969 2.636719 15.90625 2.75 L 22.09375 8.933594 C 22.207031 9.046875 22.207031 9.230469 22.09375 9.34375 C 22.035156 9.398438 21.960938 9.425781 21.890625 9.425781 Z M 21.890625 9.425781 " fill-opacity="1" fill-rule="nonzero"/><path fill="#000000" d="M 15.703125 9.425781 C 15.628906 9.425781 15.554688 9.398438 15.5 9.34375 C 15.386719 9.230469 15.386719 9.046875 15.5 8.933594 L 21.683594 2.75 C 21.796875 2.636719 21.980469 2.636719 22.09375 2.75 C 22.207031 2.863281 22.207031 3.042969 22.09375 3.15625 L 15.90625 9.34375 C 15.851562 9.398438 15.777344 9.425781 15.703125 9.425781 Z M 15.703125 9.425781 " fill-opacity="1" fill-rule="nonzero"/><g clip-path="url(#8d5b7d5cfd)"><path fill="#000000" d="M 24.574219 18.636719 L 5.320312 18.636719 C 5.035156 18.636719 4.800781 18.402344 4.800781 18.117188 L 4.800781 17.066406 C 4.800781 16.78125 5.035156 16.546875 5.320312 16.546875 L 24.574219 16.546875 C 24.863281 16.546875 25.09375 16.78125 25.09375 17.066406 L 25.09375 18.117188 C 25.09375 18.402344 24.863281 18.636719 24.574219 18.636719 Z M 5.378906 18.058594 L 24.515625 18.058594 L 24.515625 17.125 L 5.378906 17.125 Z M 5.378906 18.058594 " fill-opacity="1" fill-rule="nonzero"/></g><path fill="#000000" d="M 14.191406 17.125 C 14.117188 17.125 14.042969 17.097656 13.988281 17.039062 L 7.800781 10.855469 C 7.691406 10.742188 7.691406 10.558594 7.800781 10.445312 C 7.914062 10.332031 8.097656 10.332031 8.210938 10.445312 L 14.394531 16.632812 C 14.507812 16.746094 14.507812 16.925781 14.394531 17.039062 C 14.339844 17.097656 14.265625 17.125 14.191406 17.125 Z M 14.191406 17.125 " fill-opacity="1" fill-rule="nonzero"/><path fill="#000000" d="M 8.007812 17.125 C 7.933594 17.125 7.859375 17.097656 7.800781 17.039062 C 7.691406 16.925781 7.691406 16.746094 7.800781 16.632812 L 13.988281 10.445312 C 14.101562 10.332031 14.28125 10.332031 14.394531 10.445312 C 14.507812 10.558594 14.507812 10.742188 14.394531 10.855469 L 8.210938 17.039062 C 8.152344 17.097656 8.082031 17.125 8.007812 17.125 Z M 8.007812 17.125 " fill-opacity="1" fill-rule="nonzero"/><path fill="#000000" d="M 21.890625 17.125 C 21.816406 17.125 21.742188 17.097656 21.683594 17.039062 L 15.5 10.855469 C 15.386719 10.742188 15.386719 10.558594 15.5 10.445312 C 15.613281 10.332031 15.792969 10.332031 15.90625 10.445312 L 22.09375 16.632812 C 22.207031 16.746094 22.207031 16.925781 22.09375 17.039062 C 22.035156 17.097656 21.960938 17.125 21.890625 17.125 Z M 21.890625 17.125 " fill-opacity="1" fill-rule="nonzero"/><path fill="#000000" d="M 15.703125 17.125 C 15.628906 17.125 15.554688 17.097656 15.5 17.039062 C 15.386719 16.925781 15.386719 16.746094 15.5 16.632812 L 21.683594 10.445312 C 21.796875 10.332031 21.980469 10.332031 22.09375 10.445312 C 22.207031 10.558594 22.207031 10.742188 22.09375 10.855469 L 15.90625 17.039062 C 15.851562 17.097656 15.777344 17.125 15.703125 17.125 Z M 15.703125 17.125 " fill-opacity="1" fill-rule="nonzero"/><path fill="#000000" d="M 14.191406 24.820312 C 14.117188 24.820312 14.042969 24.792969 13.988281 24.738281 L 7.800781 18.550781 C 7.691406 18.4375 7.691406 18.257812 7.800781 18.144531 C 7.914062 18.03125 8.097656 18.03125 8.210938 18.144531 L 14.394531 24.328125 C 14.507812 24.441406 14.507812 24.625 14.394531 24.738281 C 14.339844 24.792969 14.265625 24.820312 14.191406 24.820312 Z M 14.191406 24.820312 " fill-opacity="1" fill-rule="nonzero"/><path fill="#000000" d="M 8.007812 24.820312 C 7.933594 24.820312 7.859375 24.792969 7.800781 24.738281 C 7.691406 24.625 7.691406 24.441406 7.800781 24.328125 L 13.988281 18.144531 C 14.101562 18.03125 14.28125 18.03125 14.394531 18.144531 C 14.507812 18.257812 14.507812 18.4375 14.394531 18.550781 L 8.210938 24.738281 C 8.152344 24.792969 8.082031 24.820312 8.007812 24.820312 Z M 8.007812 24.820312 " fill-opacity="1" fill-rule="nonzero"/><path fill="#000000" d="M 21.890625 24.820312 C 21.816406 24.820312 21.742188 24.792969 21.683594 24.738281 L 15.5 18.550781 C 15.386719 18.4375 15.386719 18.257812 15.5 18.144531 C 15.613281 18.03125 15.792969 18.03125 15.90625 18.144531 L 22.09375 24.328125 C 22.207031 24.441406 22.207031 24.625 22.09375 24.738281 C 22.035156 24.792969 21.960938 24.820312 21.890625 24.820312 Z M 21.890625 24.820312 " fill-opacity="1" fill-rule="nonzero"/><path fill="#000000" d="M 15.703125 24.820312 C 15.628906 24.820312 15.554688 24.792969 15.5 24.738281 C 15.386719 24.625 15.386719 24.441406 15.5 24.328125 L 21.683594 18.144531 C 21.796875 18.03125 21.980469 18.03125 22.09375 18.144531 C 22.207031 18.257812 22.207031 18.4375 22.09375 18.550781 L 15.90625 24.738281 C 15.851562 24.792969 15.777344 24.820312 15.703125 24.820312 Z M 15.703125 24.820312 " fill-opacity="1" fill-rule="nonzero"/><path fill="#000000" d="M 21.886719 3.242188 L 15.703125 3.242188 C 15.542969 3.242188 15.414062 3.113281 15.414062 2.953125 C 15.414062 2.792969 15.542969 2.664062 15.703125 2.664062 L 21.886719 2.664062 C 22.046875 2.664062 22.175781 2.792969 22.175781 2.953125 C 22.175781 3.113281 22.046875 3.242188 21.886719 3.242188 Z M 21.886719 3.242188 " fill-opacity="1" fill-rule="nonzero"/><path fill="#000000" d="M 14.191406 3.242188 L 8.007812 3.242188 C 7.847656 3.242188 7.71875 3.113281 7.71875 2.953125 C 7.71875 2.792969 7.847656 2.664062 8.007812 2.664062 L 14.191406 2.664062 C 14.351562 2.664062 14.480469 2.792969 14.480469 2.953125 C 14.480469 3.113281 14.351562 3.242188 14.191406 3.242188 Z M 14.191406 3.242188 " fill-opacity="1" fill-rule="nonzero"/><g clip-path="url(#7116e73ff7)"><path fill="#000000" d="M 8.953125 26.371094 L 5.546875 26.371094 C 5.316406 26.371094 5.128906 26.183594 5.128906 25.953125 L 5.128906 25.226562 C 5.128906 24.683594 5.570312 24.246094 6.113281 24.246094 L 8.390625 24.246094 C 8.929688 24.246094 9.371094 24.683594 9.371094 25.226562 L 9.371094 25.953125 C 9.371094 26.183594 9.183594 26.371094 8.953125 26.371094 Z M 5.707031 25.796875 L 8.792969 25.796875 L 8.792969 25.226562 C 8.792969 25.003906 8.613281 24.820312 8.390625 24.820312 L 6.113281 24.820312 C 5.886719 24.820312 5.707031 25.003906 5.707031 25.226562 Z M 5.707031 25.796875 " fill-opacity="1" fill-rule="nonzero"/></g><g clip-path="url(#dd7108d006)"><path fill="#000000" d="M 16.648438 26.371094 L 13.246094 26.371094 C 13.015625 26.371094 12.828125 26.183594 12.828125 25.953125 L 12.828125 25.226562 C 12.828125 24.683594 13.265625 24.246094 13.808594 24.246094 L 16.085938 24.246094 C 16.628906 24.246094 17.070312 24.683594 17.070312 25.226562 L 17.070312 25.953125 C 17.070312 26.183594 16.878906 26.371094 16.648438 26.371094 Z M 13.402344 25.796875 L 16.492188 25.796875 L 16.492188 25.226562 C 16.492188 25.003906 16.308594 24.820312 16.085938 24.820312 L 13.808594 24.820312 C 13.585938 24.820312 13.402344 25.003906 13.402344 25.226562 Z M 13.402344 25.796875 " fill-opacity="1" fill-rule="nonzero"/></g><g clip-path="url(#232c15fd8d)"><path fill="#000000" d="M 24.347656 26.371094 L 20.941406 26.371094 C 20.710938 26.371094 20.523438 26.183594 20.523438 25.953125 L 20.523438 25.226562 C 20.523438 24.683594 20.964844 24.246094 21.507812 24.246094 L 23.78125 24.246094 C 24.324219 24.246094 24.765625 24.683594 24.765625 25.226562 L 24.765625 25.953125 C 24.765625 26.183594 24.578125 26.371094 24.347656 26.371094 Z M 21.101562 25.796875 L 24.1875 25.796875 L 24.1875 25.226562 C 24.1875 25.003906 24.007812 24.820312 23.78125 24.820312 L 21.507812 24.820312 C 21.28125 24.820312 21.101562 25.003906 21.101562 25.226562 Z M 21.101562 25.796875 " fill-opacity="1" fill-rule="nonzero"/></g><g fill="#000000" fill-opacity="1"><g transform="translate(27.38508, 0.354841)"><g><path d="M 0.109375 0 L 0.03125 0 L 0.203125 -0.28125 L 0.03125 -0.5625 L 0.125 -0.5625 L 0.25 -0.34375 L 0.265625 -0.34375 L 0.390625 -0.5625 L 0.484375 -0.5625 L 0.328125 -0.28125 L 0.5 0 L 0.40625 0 L 0.265625 -0.234375 L 0.25 -0.234375 Z M 0.109375 0 "/></g></g></g><g clip-path="url(#e36b94d7ec)"><g fill="#000000" fill-opacity="1"><g transform="translate(29.255292, 0.140325)"><g><path d="M 0.109375 0 L 0.03125 0 L 0.203125 -0.28125 L 0.03125 -0.5625 L 0.125 -0.5625 L 0.25 -0.34375 L 0.265625 -0.34375 L 0.390625 -0.5625 L 0.484375 -0.5625 L 0.328125 -0.28125 L 0.5 0 L 0.40625 0 L 0.265625 -0.234375 L 0.25 -0.234375 Z M 0.109375 0 "/></g></g></g></g></svg>