<svg xmlns="http://www.w3.org/2000/svg" xmlns:xlink="http://www.w3.org/1999/xlink" width="40" zoomAndPan="magnify" viewBox="0 0 30 30.000001" height="40" preserveAspectRatio="xMidYMid meet" version="1.0"><defs><g/><clipPath id="e22deaf784"><path d="M 3.699219 24 L 26.199219 24 L 26.199219 26.925781 L 3.699219 26.925781 Z M 3.699219 24 " clip-rule="nonzero"/></clipPath><clipPath id="e783f6ab7b"><path d="M 3.699219 10 L 26.199219 10 L 26.199219 26 L 3.699219 26 Z M 3.699219 10 " clip-rule="nonzero"/></clipPath><clipPath id="4b2b52001a"><path d="M 11 4.425781 L 15 4.425781 L 15 7 L 11 7 Z M 11 4.425781 " clip-rule="nonzero"/></clipPath><clipPath id="9c19405657"><path d="M 5 4.425781 L 9 4.425781 L 9 7 L 5 7 Z M 5 4.425781 " clip-rule="nonzero"/></clipPath><clipPath id="25d06c7de3"><path d="M 29 0 L 29.515625 0 L 29.515625 1 L 29 1 Z M 29 0 " clip-rule="nonzero"/></clipPath></defs><g clip-path="url(#e22deaf784)"><path fill="#000000" d="M 25.746094 26.925781 L 4.152344 26.925781 C 3.910156 26.925781 3.710938 26.730469 3.710938 26.484375 L 3.710938 24.726562 C 3.710938 24.484375 3.910156 24.285156 4.152344 24.285156 L 25.746094 24.285156 C 25.988281 24.285156 26.183594 24.484375 26.183594 24.726562 L 26.183594 26.484375 C 26.183594 26.726562 25.988281 26.925781 25.746094 26.925781 Z M 4.59375 26.046875 L 25.304688 26.046875 L 25.304688 25.164062 L 4.59375 25.164062 Z M 4.59375 26.046875 " fill-opacity="1" fill-rule="nonzero"/></g><path fill="#000000" d="M 8.027344 16.367188 L 5.089844 16.367188 C 4.839844 16.367188 4.636719 16.15625 4.648438 15.90625 L 5.035156 7.984375 C 5.046875 7.75 5.238281 7.566406 5.472656 7.566406 C 5.480469 7.566406 7.683594 7.5625 7.679688 7.5625 C 7.914062 7.5625 8.109375 7.746094 8.117188 7.984375 L 8.46875 15.90625 C 8.472656 16.027344 8.429688 16.144531 8.347656 16.230469 C 8.265625 16.316406 8.148438 16.367188 8.027344 16.367188 Z M 5.550781 15.484375 L 7.566406 15.484375 L 7.257812 8.445312 L 5.894531 8.445312 Z M 5.550781 15.484375 " fill-opacity="1" fill-rule="nonzero"/><path fill="#000000" d="M 7.757812 10.203125 L 5.390625 10.203125 C 5.148438 10.203125 4.949219 10.003906 4.949219 9.761719 C 4.949219 9.519531 5.148438 9.320312 5.390625 9.320312 L 7.757812 9.320312 C 8 9.320312 8.195312 9.519531 8.195312 9.761719 C 8.195312 10.003906 8 10.203125 7.757812 10.203125 Z M 7.757812 10.203125 " fill-opacity="1" fill-rule="nonzero"/><path fill="#000000" d="M 7.851562 12.394531 L 5.28125 12.394531 C 5.039062 12.394531 4.84375 12.199219 4.84375 11.957031 C 4.84375 11.714844 5.039062 11.515625 5.28125 11.515625 L 7.851562 11.515625 C 8.097656 11.515625 8.292969 11.714844 8.292969 11.957031 C 8.292969 12.199219 8.097656 12.394531 7.851562 12.394531 Z M 7.851562 12.394531 " fill-opacity="1" fill-rule="nonzero"/><path fill="#000000" d="M 23.980469 25.164062 L 19.136719 25.164062 C 18.890625 25.164062 18.695312 24.96875 18.695312 24.726562 L 18.695312 17.246094 C 18.695312 17.003906 18.890625 16.804688 19.136719 16.804688 L 23.980469 16.804688 C 24.226562 16.804688 24.421875 17.003906 24.421875 17.246094 L 24.421875 24.726562 C 24.421875 24.96875 24.226562 25.164062 23.980469 25.164062 Z M 19.574219 24.285156 L 23.542969 24.285156 L 23.542969 17.6875 L 19.574219 17.6875 Z M 19.574219 24.285156 " fill-opacity="1" fill-rule="nonzero"/><path fill="#000000" d="M 8.558594 19.886719 L 5.914062 19.886719 C 5.671875 19.886719 5.476562 19.6875 5.476562 19.445312 L 5.476562 17.6875 C 5.476562 17.441406 5.671875 17.246094 5.914062 17.246094 L 8.558594 17.246094 C 8.804688 17.246094 9 17.441406 9 17.6875 L 9 19.445312 C 9 19.6875 8.804688 19.886719 8.558594 19.886719 Z M 6.355469 19.007812 L 8.117188 19.007812 L 8.117188 18.125 L 6.355469 18.125 Z M 6.355469 19.007812 " fill-opacity="1" fill-rule="nonzero"/><path fill="#000000" d="M 12.964844 19.886719 L 10.320312 19.886719 C 10.078125 19.886719 9.882812 19.6875 9.882812 19.445312 L 9.882812 17.6875 C 9.882812 17.441406 10.078125 17.246094 10.320312 17.246094 L 12.964844 17.246094 C 13.210938 17.246094 13.40625 17.441406 13.40625 17.6875 L 13.40625 19.445312 C 13.40625 19.6875 13.210938 19.886719 12.964844 19.886719 Z M 10.761719 19.007812 L 12.523438 19.007812 L 12.523438 18.125 L 10.761719 18.125 Z M 10.761719 19.007812 " fill-opacity="1" fill-rule="nonzero"/><path fill="#000000" d="M 17.371094 19.886719 L 14.730469 19.886719 C 14.484375 19.886719 14.289062 19.6875 14.289062 19.445312 L 14.289062 17.6875 C 14.289062 17.441406 14.484375 17.246094 14.730469 17.246094 L 17.371094 17.246094 C 17.617188 17.246094 17.8125 17.441406 17.8125 17.6875 L 17.8125 19.445312 C 17.8125 19.6875 17.617188 19.886719 17.371094 19.886719 Z M 15.167969 19.007812 L 16.933594 19.007812 L 16.933594 18.125 L 15.167969 18.125 Z M 15.167969 19.007812 " fill-opacity="1" fill-rule="nonzero"/><path fill="#000000" d="M 8.558594 23.40625 L 5.914062 23.40625 C 5.671875 23.40625 5.476562 23.207031 5.476562 22.964844 L 5.476562 21.207031 C 5.476562 20.964844 5.671875 20.765625 5.914062 20.765625 L 8.558594 20.765625 C 8.804688 20.765625 9 20.964844 9 21.207031 L 9 22.964844 C 9 23.207031 8.804688 23.40625 8.558594 23.40625 Z M 6.355469 22.527344 L 8.117188 22.527344 L 8.117188 21.644531 L 6.355469 21.644531 Z M 6.355469 22.527344 " fill-opacity="1" fill-rule="nonzero"/><path fill="#000000" d="M 12.964844 23.40625 L 10.320312 23.40625 C 10.078125 23.40625 9.882812 23.207031 9.882812 22.964844 L 9.882812 21.207031 C 9.882812 20.964844 10.078125 20.765625 10.320312 20.765625 L 12.964844 20.765625 C 13.210938 20.765625 13.40625 20.964844 13.40625 21.207031 L 13.40625 22.964844 C 13.40625 23.207031 13.210938 23.40625 12.964844 23.40625 Z M 10.761719 22.527344 L 12.523438 22.527344 L 12.523438 21.644531 L 10.761719 21.644531 Z M 10.761719 22.527344 " fill-opacity="1" fill-rule="nonzero"/><path fill="#000000" d="M 17.371094 23.40625 L 14.730469 23.40625 C 14.484375 23.40625 14.289062 23.207031 14.289062 22.964844 L 14.289062 21.207031 C 14.289062 20.964844 14.484375 20.765625 14.730469 20.765625 L 17.371094 20.765625 C 17.617188 20.765625 17.8125 20.964844 17.8125 21.207031 L 17.8125 22.964844 C 17.8125 23.207031 17.617188 23.40625 17.371094 23.40625 Z M 15.167969 22.527344 L 16.933594 22.527344 L 16.933594 21.644531 L 15.167969 21.644531 Z M 15.167969 22.527344 " fill-opacity="1" fill-rule="nonzero"/><path fill="#000000" d="M 13.316406 16.367188 L 10.378906 16.367188 C 10.125 16.367188 9.925781 16.15625 9.9375 15.90625 L 10.324219 7.984375 C 10.335938 7.75 10.527344 7.566406 10.761719 7.566406 C 10.765625 7.566406 12.972656 7.5625 12.964844 7.5625 C 13.203125 7.5625 13.394531 7.746094 13.40625 7.984375 L 13.757812 15.90625 C 13.765625 16.15625 13.566406 16.367188 13.316406 16.367188 Z M 10.839844 15.484375 L 12.855469 15.484375 L 12.542969 8.445312 L 11.183594 8.445312 Z M 10.839844 15.484375 " fill-opacity="1" fill-rule="nonzero"/><path fill="#000000" d="M 13.042969 10.203125 L 10.675781 10.203125 C 10.433594 10.203125 10.238281 10.003906 10.238281 9.761719 C 10.238281 9.519531 10.433594 9.320312 10.675781 9.320312 L 13.042969 9.320312 C 13.285156 9.320312 13.484375 9.519531 13.484375 9.761719 C 13.484375 10.003906 13.285156 10.203125 13.042969 10.203125 Z M 13.042969 10.203125 " fill-opacity="1" fill-rule="nonzero"/><path fill="#000000" d="M 13.140625 12.394531 L 10.570312 12.394531 C 10.328125 12.394531 10.128906 12.199219 10.128906 11.957031 C 10.128906 11.714844 10.328125 11.515625 10.570312 11.515625 L 13.140625 11.515625 C 13.382812 11.515625 13.582031 11.714844 13.582031 11.957031 C 13.582031 12.199219 13.382812 12.394531 13.140625 12.394531 Z M 13.140625 12.394531 " fill-opacity="1" fill-rule="nonzero"/><g clip-path="url(#e783f6ab7b)"><path fill="#000000" d="M 25.746094 25.164062 L 4.152344 25.164062 C 3.910156 25.164062 3.710938 24.96875 3.710938 24.726562 L 3.710938 15.925781 C 3.710938 15.683594 3.910156 15.484375 4.152344 15.484375 L 17.371094 15.484375 L 17.371094 14.167969 C 17.371094 13.984375 17.484375 13.820312 17.652344 13.757812 L 25.585938 10.675781 C 25.875 10.566406 26.183594 10.777344 26.183594 11.085938 L 26.183594 24.726562 C 26.183594 24.96875 25.988281 25.164062 25.746094 25.164062 Z M 4.59375 24.285156 L 25.304688 24.285156 L 25.304688 11.730469 L 18.253906 14.46875 L 18.253906 15.925781 C 18.253906 16.167969 18.054688 16.367188 17.8125 16.367188 L 4.59375 16.367188 Z M 4.59375 24.285156 " fill-opacity="1" fill-rule="nonzero"/></g><path fill="#000000" d="M 17.8125 16.367188 L 15.167969 16.367188 C 14.925781 16.367188 14.730469 16.167969 14.730469 15.925781 L 14.730469 12.847656 C 14.730469 12.664062 14.84375 12.496094 15.015625 12.433594 L 23.390625 9.355469 C 23.523438 9.304688 23.675781 9.324219 23.792969 9.40625 C 23.910156 9.488281 23.980469 9.621094 23.980469 9.765625 L 23.980469 11.9375 C 23.980469 12.179688 23.785156 12.375 23.542969 12.375 C 23.296875 12.375 23.101562 12.179688 23.101562 11.9375 L 23.101562 10.398438 L 15.609375 13.152344 L 15.609375 15.484375 L 17.8125 15.484375 C 18.054688 15.484375 18.253906 15.683594 18.253906 15.925781 C 18.253906 16.167969 18.054688 16.367188 17.8125 16.367188 Z M 17.8125 16.367188 " fill-opacity="1" fill-rule="nonzero"/><g clip-path="url(#4b2b52001a)"><path fill="#000000" d="M 11.210938 6.285156 C 11.085938 6.078125 11.152344 5.804688 11.359375 5.679688 C 11.636719 5.515625 11.84375 5.503906 11.984375 5.492188 C 12.078125 5.488281 12.117188 5.484375 12.207031 5.429688 C 12.300781 5.375 12.320312 5.34375 12.371094 5.261719 C 12.445312 5.144531 12.554688 4.964844 12.828125 4.800781 C 13.105469 4.636719 13.3125 4.621094 13.453125 4.613281 C 13.546875 4.605469 13.585938 4.605469 13.675781 4.550781 C 13.886719 4.425781 14.15625 4.492188 14.28125 4.699219 C 14.40625 4.910156 14.339844 5.179688 14.128906 5.304688 C 13.855469 5.46875 13.648438 5.484375 13.507812 5.492188 C 13.410156 5.5 13.375 5.5 13.28125 5.554688 C 13.191406 5.609375 13.171875 5.640625 13.121094 5.726562 C 13.046875 5.84375 12.9375 6.019531 12.660156 6.183594 C 12.386719 6.347656 12.179688 6.363281 12.039062 6.371094 C 11.941406 6.378906 11.90625 6.378906 11.8125 6.4375 C 11.605469 6.5625 11.335938 6.492188 11.210938 6.285156 Z M 11.210938 6.285156 " fill-opacity="1" fill-rule="nonzero"/></g><g clip-path="url(#9c19405657)"><path fill="#000000" d="M 5.867188 6.285156 C 5.738281 6.078125 5.808594 5.804688 6.015625 5.679688 C 6.292969 5.515625 6.5 5.503906 6.636719 5.492188 C 6.734375 5.488281 6.773438 5.484375 6.863281 5.429688 C 6.957031 5.375 6.976562 5.34375 7.027344 5.261719 C 7.101562 5.144531 7.210938 4.964844 7.484375 4.800781 C 7.761719 4.636719 7.96875 4.621094 8.105469 4.613281 C 8.203125 4.605469 8.242188 4.605469 8.332031 4.550781 C 8.542969 4.425781 8.8125 4.492188 8.9375 4.699219 C 9.0625 4.910156 8.996094 5.179688 8.785156 5.304688 C 8.511719 5.46875 8.300781 5.484375 8.164062 5.492188 C 8.066406 5.5 8.03125 5.5 7.9375 5.554688 C 7.847656 5.609375 7.828125 5.640625 7.777344 5.726562 C 7.703125 5.84375 7.59375 6.019531 7.316406 6.183594 C 7.042969 6.347656 6.832031 6.363281 6.695312 6.371094 C 6.597656 6.378906 6.5625 6.378906 6.46875 6.4375 C 6.261719 6.5625 5.988281 6.492188 5.867188 6.285156 Z M 5.867188 6.285156 " fill-opacity="1" fill-rule="nonzero"/></g><g fill="#000000" fill-opacity="1"><g transform="translate(27.38508, 0.354841)"><g><path d="M 0.109375 0 L 0.03125 0 L 0.203125 -0.28125 L 0.03125 -0.5625 L 0.125 -0.5625 L 0.25 -0.34375 L 0.265625 -0.34375 L 0.390625 -0.5625 L 0.484375 -0.5625 L 0.328125 -0.28125 L 0.5 0 L 0.40625 0 L 0.265625 -0.234375 L 0.25 -0.234375 Z M 0.109375 0 "/></g></g></g><g clip-path="url(#25d06c7de3)"><g fill="#000000" fill-opacity="1"><g transform="translate(29.255292, 0.140325)"><g><path d="M 0.109375 0 L 0.03125 0 L 0.203125 -0.28125 L 0.03125 -0.5625 L 0.125 -0.5625 L 0.25 -0.34375 L 0.265625 -0.34375 L 0.390625 -0.5625 L 0.484375 -0.5625 L 0.328125 -0.28125 L 0.5 0 L 0.40625 0 L 0.265625 -0.234375 L 0.25 -0.234375 Z M 0.109375 0 "/></g></g></g></g></svg>