<svg xmlns="http://www.w3.org/2000/svg" xmlns:xlink="http://www.w3.org/1999/xlink" width="40" zoomAndPan="magnify" viewBox="0 0 30 30.000001" height="40" preserveAspectRatio="xMidYMid meet" version="1.0"><defs><g/><clipPath id="05d12d50cd"><path d="M 8 17 L 25.886719 17 L 25.886719 23 L 8 23 Z M 8 17 " clip-rule="nonzero"/></clipPath><clipPath id="c81ef830c8"><path d="M 3.386719 16 L 10 16 L 10 25.402344 L 3.386719 25.402344 Z M 3.386719 16 " clip-rule="nonzero"/></clipPath><clipPath id="c49e4df26e"><path d="M 8 23 L 25.886719 23 L 25.886719 25.402344 L 8 25.402344 Z M 8 23 " clip-rule="nonzero"/></clipPath><clipPath id="0cb76694c2"><path d="M 22 2.902344 L 25 2.902344 L 25 17 L 22 17 Z M 22 2.902344 " clip-rule="nonzero"/></clipPath><clipPath id="28be21d9ac"><path d="M 29 0 L 29.515625 0 L 29.515625 1 L 29 1 Z M 29 0 " clip-rule="nonzero"/></clipPath></defs><path fill="#000000" d="M 4.9375 11.4375 L 11.921875 11.4375 L 11.921875 10.660156 L 4.9375 10.660156 L 4.9375 11.4375 " fill-opacity="1" fill-rule="nonzero"/><path fill="#000000" d="M 4.9375 17.527344 L 5.566406 16.589844 C 5.773438 16.277344 6.117188 16.09375 6.492188 16.09375 C 6.863281 16.09375 7.207031 16.277344 7.417969 16.589844 L 7.601562 16.867188 L 9.59375 16.867188 L 9.59375 13.765625 L 11.921875 13.765625 L 11.921875 12.214844 L 4.9375 12.214844 L 4.9375 17.527344 " fill-opacity="1" fill-rule="nonzero"/><path fill="#000000" d="M 13.472656 22.300781 L 13.472656 19.195312 L 11.921875 19.195312 L 11.921875 22.300781 L 13.472656 22.300781 " fill-opacity="1" fill-rule="nonzero"/><path fill="#000000" d="M 18.128906 22.300781 L 18.128906 19.195312 L 16.578125 19.195312 L 16.578125 22.300781 L 18.128906 22.300781 " fill-opacity="1" fill-rule="nonzero"/><path fill="#000000" d="M 23.558594 22.300781 L 23.558594 19.195312 L 20.457031 19.195312 L 20.457031 22.300781 L 23.558594 22.300781 " fill-opacity="1" fill-rule="nonzero"/><path fill="#000000" d="M 15.800781 8.335938 L 15.023438 8.335938 L 15.023438 7.558594 L 15.800781 7.558594 Z M 15.800781 9.886719 L 15.023438 9.886719 L 15.023438 9.109375 L 15.800781 9.109375 Z M 15.800781 11.4375 L 15.023438 11.4375 L 15.023438 10.660156 L 15.800781 10.660156 Z M 15.800781 12.988281 L 15.023438 12.988281 L 15.023438 12.214844 L 15.800781 12.214844 Z M 14.25 6.78125 L 14.25 13.765625 L 16.578125 13.765625 L 16.578125 6.78125 L 14.25 6.78125 " fill-opacity="1" fill-rule="nonzero"/><path fill="#000000" d="M 12.699219 16.867188 L 12.699219 16.09375 L 11.921875 16.09375 L 11.921875 16.867188 L 12.699219 16.867188 " fill-opacity="1" fill-rule="nonzero"/><path fill="#000000" d="M 10.371094 16.867188 L 11.144531 16.867188 L 11.144531 15.316406 L 13.472656 15.316406 L 13.472656 16.867188 L 14.25 16.867188 L 14.25 15.316406 L 16.578125 15.316406 L 16.578125 16.867188 L 17.351562 16.867188 L 17.351562 14.542969 L 10.371094 14.542969 L 10.371094 16.867188 " fill-opacity="1" fill-rule="nonzero"/><path fill="#000000" d="M 15.800781 16.867188 L 15.800781 16.09375 L 15.023438 16.09375 L 15.023438 16.867188 L 15.800781 16.867188 " fill-opacity="1" fill-rule="nonzero"/><path fill="#000000" d="M 15.800781 22.300781 L 15.800781 19.195312 L 14.25 19.195312 L 14.25 22.300781 L 15.800781 22.300781 " fill-opacity="1" fill-rule="nonzero"/><path fill="#000000" d="M 11.921875 9.886719 L 11.921875 8.335938 C 11.863281 8.125 10.699219 7.558594 8.429688 7.558594 C 6.160156 7.558594 4.996094 8.125 4.9375 8.339844 L 4.9375 9.886719 L 11.921875 9.886719 " fill-opacity="1" fill-rule="nonzero"/><g clip-path="url(#05d12d50cd)"><path fill="#000000" d="M 25.109375 22.300781 L 25.109375 17.644531 L 8.121094 17.644531 L 9.71875 20.039062 C 10.144531 20.679688 10.371094 21.425781 10.371094 22.195312 L 10.371094 22.300781 L 11.144531 22.300781 L 11.144531 18.421875 L 18.90625 18.421875 L 18.90625 22.300781 L 19.679688 22.300781 L 19.679688 18.421875 L 24.335938 18.421875 L 24.335938 22.300781 L 25.109375 22.300781 " fill-opacity="1" fill-rule="nonzero"/></g><g clip-path="url(#c81ef830c8)"><path fill="#000000" d="M 6.492188 24.628906 C 5.207031 24.628906 4.164062 23.582031 4.164062 22.300781 L 4.9375 22.300781 C 4.9375 23.15625 5.632812 23.851562 6.492188 23.851562 Z M 9.59375 22.195312 C 9.59375 21.578125 9.414062 20.984375 9.074219 20.472656 L 6.769531 17.019531 C 6.644531 16.832031 6.335938 16.832031 6.210938 17.019531 L 3.910156 20.472656 C 3.566406 20.984375 3.386719 21.578125 3.386719 22.195312 L 3.386719 22.300781 C 3.386719 24.011719 4.78125 25.402344 6.492188 25.402344 C 8.203125 25.402344 9.59375 24.011719 9.59375 22.300781 L 9.59375 22.195312 " fill-opacity="1" fill-rule="nonzero"/></g><path fill="#000000" d="M 17.351562 5.230469 L 13.472656 5.230469 L 13.472656 6.007812 L 17.351562 6.007812 L 17.351562 5.230469 " fill-opacity="1" fill-rule="nonzero"/><g clip-path="url(#c49e4df26e)"><path fill="#000000" d="M 10.292969 23.074219 C 10.097656 24.023438 9.554688 24.84375 8.808594 25.402344 L 25.886719 25.402344 L 25.886719 23.074219 L 10.292969 23.074219 " fill-opacity="1" fill-rule="nonzero"/></g><g clip-path="url(#0cb76694c2)"><path fill="#000000" d="M 22.785156 8.335938 L 23.558594 8.335938 L 23.558594 9.109375 L 22.785156 9.109375 Z M 22.785156 6.78125 L 23.558594 6.78125 L 23.558594 7.558594 L 22.785156 7.558594 Z M 22.785156 5.230469 L 23.558594 5.230469 L 23.558594 6.007812 L 22.785156 6.007812 Z M 22.785156 3.679688 L 23.558594 3.679688 L 23.558594 4.453125 L 22.785156 4.453125 Z M 22.785156 12.214844 L 23.558594 12.214844 L 23.558594 16.867188 L 24.335938 16.867188 L 24.335938 2.902344 L 22.007812 2.902344 L 22.007812 9.886719 L 22.785156 9.886719 L 22.785156 12.214844 " fill-opacity="1" fill-rule="nonzero"/></g><path fill="#000000" d="M 22.007812 10.660156 L 20.457031 10.660156 L 20.457031 12.214844 L 22.007812 12.214844 L 22.007812 10.660156 " fill-opacity="1" fill-rule="nonzero"/><path fill="#000000" d="M 21.621094 14.542969 L 20.84375 14.542969 L 20.84375 13.765625 L 21.621094 13.765625 Z M 21.621094 16.09375 L 20.84375 16.09375 L 20.84375 15.316406 L 21.621094 15.316406 Z M 22.785156 12.988281 L 19.679688 12.988281 L 19.679688 16.867188 L 22.785156 16.867188 L 22.785156 12.988281 " fill-opacity="1" fill-rule="nonzero"/><g fill="#000000" fill-opacity="1"><g transform="translate(27.38508, 0.354841)"><g><path d="M 0.109375 0 L 0.03125 0 L 0.203125 -0.28125 L 0.03125 -0.5625 L 0.125 -0.5625 L 0.25 -0.34375 L 0.265625 -0.34375 L 0.390625 -0.5625 L 0.484375 -0.5625 L 0.328125 -0.28125 L 0.5 0 L 0.40625 0 L 0.265625 -0.234375 L 0.25 -0.234375 Z M 0.109375 0 "/></g></g></g><g clip-path="url(#28be21d9ac)"><g fill="#000000" fill-opacity="1"><g transform="translate(29.255292, 0.140325)"><g><path d="M 0.109375 0 L 0.03125 0 L 0.203125 -0.28125 L 0.03125 -0.5625 L 0.125 -0.5625 L 0.25 -0.34375 L 0.265625 -0.34375 L 0.390625 -0.5625 L 0.484375 -0.5625 L 0.328125 -0.28125 L 0.5 0 L 0.40625 0 L 0.265625 -0.234375 L 0.25 -0.234375 Z M 0.109375 0 "/></g></g></g></g></svg>