<svg xmlns="http://www.w3.org/2000/svg" xmlns:xlink="http://www.w3.org/1999/xlink" width="40" zoomAndPan="magnify" viewBox="0 0 30 30.000001" height="40" preserveAspectRatio="xMidYMid meet" version="1.0"><defs><g/><clipPath id="b38abaf7f6"><path d="M 15 16 L 24 16 L 24 25.402344 L 15 25.402344 Z M 15 16 " clip-rule="nonzero"/></clipPath><clipPath id="afb439b17f"><path d="M 3.929688 2.902344 L 26.429688 2.902344 L 26.429688 25.402344 L 3.929688 25.402344 Z M 3.929688 2.902344 " clip-rule="nonzero"/></clipPath><clipPath id="5439720534"><path d="M 29 0 L 29.515625 0 L 29.515625 1 L 29 1 Z M 29 0 " clip-rule="nonzero"/></clipPath></defs><g clip-path="url(#b38abaf7f6)"><path fill="#000000" d="M 22.6875 17.902344 L 21.9375 17.902344 L 21.9375 18.652344 L 20.0625 18.652344 L 20.0625 16.402344 L 19.3125 16.402344 L 19.3125 18.652344 L 17.4375 18.652344 L 17.4375 17.902344 L 16.6875 17.902344 L 16.6875 18.652344 L 15.5625 18.652344 L 15.5625 19.402344 L 16.6875 19.402344 L 16.6875 20.152344 L 16.3125 20.152344 C 16.105469 20.152344 15.9375 20.320312 15.9375 20.527344 L 15.9375 25.027344 C 15.9375 25.234375 16.105469 25.402344 16.3125 25.402344 L 23.0625 25.402344 C 23.265625 25.402344 23.4375 25.234375 23.4375 25.027344 L 23.4375 20.527344 C 23.4375 20.320312 23.265625 20.152344 23.0625 20.152344 L 22.6875 20.152344 L 22.6875 19.402344 L 23.8125 19.402344 L 23.8125 18.652344 L 22.6875 18.652344 Z M 17.4375 19.402344 L 19.3125 19.402344 L 19.3125 20.152344 L 17.4375 20.152344 Z M 20.4375 24.652344 L 18.9375 24.652344 L 18.9375 22.777344 L 20.4375 22.777344 Z M 22.6875 24.652344 L 21.1875 24.652344 L 21.1875 22.402344 C 21.1875 22.195312 21.015625 22.027344 20.8125 22.027344 L 18.5625 22.027344 C 18.355469 22.027344 18.1875 22.195312 18.1875 22.402344 L 18.1875 24.652344 L 16.6875 24.652344 L 16.6875 20.902344 L 22.6875 20.902344 Z M 21.9375 20.152344 L 20.0625 20.152344 L 20.0625 19.402344 L 21.9375 19.402344 Z M 21.9375 20.152344 " fill-opacity="1" fill-rule="nonzero"/></g><g clip-path="url(#afb439b17f)"><path fill="#000000" d="M 26.234375 16.078125 L 23.4375 14.402344 L 23.4375 11.527344 L 23.8125 11.527344 C 24.015625 11.527344 24.1875 11.359375 24.1875 11.152344 L 24.1875 10.027344 L 24.5625 10.027344 C 24.765625 10.027344 24.9375 9.859375 24.9375 9.652344 L 24.9375 7.402344 C 24.9375 7.195312 24.765625 7.027344 24.5625 7.027344 L 22.367188 7.027344 L 9.296875 2.921875 C 9.285156 2.917969 9.265625 2.914062 9.246094 2.90625 C 9.246094 2.90625 9.242188 2.90625 9.242188 2.90625 C 9.222656 2.902344 9.210938 2.902344 9.191406 2.902344 C 9.191406 2.902344 9.1875 2.902344 9.1875 2.902344 C 9.179688 2.902344 9.175781 2.902344 9.175781 2.902344 C 9.164062 2.902344 9.148438 2.902344 9.132812 2.90625 C 9.128906 2.90625 9.121094 2.90625 9.117188 2.914062 C 9.101562 2.917969 9.085938 2.917969 9.074219 2.921875 C 9.070312 2.921875 9.0625 2.921875 9.058594 2.925781 C 9.039062 2.929688 9.027344 2.941406 9.007812 2.949219 C 9.003906 2.949219 9.003906 2.953125 9 2.953125 C 8.984375 2.964844 8.976562 2.96875 8.960938 2.976562 C 8.957031 2.984375 8.953125 2.988281 8.945312 2.988281 C 8.941406 2.992188 8.9375 2.996094 8.929688 3 L 4.539062 7.027344 L 4.3125 7.027344 C 4.105469 7.027344 3.9375 7.195312 3.9375 7.402344 L 3.9375 11.902344 C 3.9375 12.109375 4.105469 12.277344 4.3125 12.277344 L 6.5625 12.277344 C 6.765625 12.277344 6.9375 12.109375 6.9375 11.902344 L 6.9375 10.027344 L 7.6875 10.027344 L 7.6875 22.402344 L 6.5625 22.402344 C 6.355469 22.402344 6.1875 22.570312 6.1875 22.777344 L 6.1875 25.027344 C 6.1875 25.234375 6.355469 25.402344 6.5625 25.402344 L 11.8125 25.402344 C 12.015625 25.402344 12.1875 25.234375 12.1875 25.027344 L 12.1875 22.777344 C 12.1875 22.570312 12.015625 22.402344 11.8125 22.402344 L 10.6875 22.402344 L 10.6875 10.027344 L 21.9375 10.027344 L 21.9375 11.152344 C 21.9375 11.359375 22.105469 11.527344 22.3125 11.527344 L 22.6875 11.527344 L 22.6875 13.953125 L 20.609375 12.703125 C 20.460938 12.617188 20.273438 12.640625 20.148438 12.761719 L 19.023438 13.886719 C 18.945312 13.964844 18.902344 14.082031 18.917969 14.195312 C 18.929688 14.308594 18.996094 14.410156 19.09375 14.472656 L 24.71875 17.847656 C 24.78125 17.882812 24.847656 17.898438 24.914062 17.898438 C 25.011719 17.898438 25.105469 17.859375 25.179688 17.789062 L 26.304688 16.664062 C 26.382812 16.585938 26.425781 16.46875 26.414062 16.355469 C 26.402344 16.242188 26.335938 16.140625 26.234375 16.078125 Z M 23.4375 10.777344 L 22.6875 10.777344 L 22.6875 10.027344 L 23.4375 10.027344 Z M 9.617188 6.277344 L 8.757812 6.277344 L 9.191406 4.703125 Z M 9.1875 7.027344 L 9.640625 7.027344 C 10.113281 7.027344 10.515625 7.347656 10.644531 7.777344 L 9.1875 7.777344 Z M 11.414062 7.777344 L 12.40625 7.777344 L 11.4375 8.75 L 11.4375 8.078125 C 11.4375 7.976562 11.425781 7.875 11.414062 7.777344 Z M 22.6875 7.777344 L 23.65625 7.777344 L 22.6875 8.75 Z M 20.4375 7.777344 L 21.40625 7.777344 L 20.4375 8.75 Z M 18.1875 7.777344 L 19.15625 7.777344 L 18.1875 8.75 Z M 15.9375 7.777344 L 16.90625 7.777344 L 15.9375 8.75 Z M 13.6875 7.777344 L 14.65625 7.777344 L 13.6875 8.75 Z M 12.9375 8.308594 L 12.9375 9.277344 L 11.964844 9.277344 Z M 15.1875 8.308594 L 15.1875 9.277344 L 14.214844 9.277344 Z M 17.4375 8.308594 L 17.4375 9.277344 L 16.464844 9.277344 Z M 19.6875 8.308594 L 19.6875 9.277344 L 18.714844 9.277344 Z M 21.9375 8.308594 L 21.9375 9.277344 L 20.964844 9.277344 Z M 23.214844 9.277344 L 24.1875 8.308594 L 24.1875 9.277344 Z M 11.097656 7.027344 C 10.929688 6.792969 10.703125 6.601562 10.445312 6.46875 L 9.730469 3.839844 L 19.867188 7.027344 Z M 8.484375 4.429688 L 7.980469 6.277344 L 7.3125 6.277344 C 7.105469 6.277344 6.9375 6.445312 6.9375 6.652344 L 6.9375 7.027344 L 5.652344 7.027344 Z M 4.6875 7.777344 L 5.4375 7.777344 L 5.4375 9.277344 L 4.6875 9.277344 Z M 6.1875 7.777344 L 6.9375 7.777344 L 6.9375 9.277344 L 6.1875 9.277344 Z M 6.1875 11.527344 L 4.6875 11.527344 L 4.6875 10.027344 L 6.1875 10.027344 Z M 9.40625 10.027344 L 8.4375 11 L 8.4375 10.027344 Z M 9.9375 17.902344 L 8.964844 17.902344 L 9.9375 16.933594 Z M 8.4375 16.402344 L 9.40625 16.402344 L 8.4375 17.375 Z M 8.4375 14.152344 L 9.40625 14.152344 L 8.4375 15.125 Z M 8.4375 18.652344 L 9.40625 18.652344 L 8.4375 19.625 Z M 9.9375 15.652344 L 8.964844 15.652344 L 9.9375 14.683594 Z M 9.9375 13.402344 L 9.097656 13.402344 L 9.9375 12.703125 Z M 8.4375 12.976562 L 8.4375 12.277344 L 9.273438 12.277344 Z M 8.4375 20.902344 L 9.40625 20.902344 L 8.4375 21.875 Z M 8.964844 20.152344 L 9.9375 19.183594 L 9.9375 20.152344 Z M 9.9375 11.527344 L 8.964844 11.527344 L 9.9375 10.558594 Z M 11.4375 24.652344 L 6.9375 24.652344 L 6.9375 23.152344 L 11.4375 23.152344 Z M 8.964844 22.402344 L 9.9375 21.433594 L 9.9375 22.402344 Z M 7.6875 9.277344 L 7.6875 7.027344 L 8.4375 7.027344 L 8.4375 8.152344 C 8.4375 8.359375 8.605469 8.527344 8.8125 8.527344 L 10.6875 8.527344 L 10.6875 9.277344 Z M 24.859375 17.054688 L 19.898438 14.078125 L 20.472656 13.5 L 25.4375 16.476562 Z M 24.859375 17.054688 " fill-opacity="1" fill-rule="nonzero"/></g><g fill="#000000" fill-opacity="1"><g transform="translate(27.38508, 0.354841)"><g><path d="M 0.109375 0 L 0.03125 0 L 0.203125 -0.28125 L 0.03125 -0.5625 L 0.125 -0.5625 L 0.25 -0.34375 L 0.265625 -0.34375 L 0.390625 -0.5625 L 0.484375 -0.5625 L 0.328125 -0.28125 L 0.5 0 L 0.40625 0 L 0.265625 -0.234375 L 0.25 -0.234375 Z M 0.109375 0 "/></g></g></g><g clip-path="url(#5439720534)"><g fill="#000000" fill-opacity="1"><g transform="translate(29.255292, 0.140325)"><g><path d="M 0.109375 0 L 0.03125 0 L 0.203125 -0.28125 L 0.03125 -0.5625 L 0.125 -0.5625 L 0.25 -0.34375 L 0.265625 -0.34375 L 0.390625 -0.5625 L 0.484375 -0.5625 L 0.328125 -0.28125 L 0.5 0 L 0.40625 0 L 0.265625 -0.234375 L 0.25 -0.234375 Z M 0.109375 0 "/></g></g></g></g></svg>